<?xml version="1.0" encoding="iso-8859-1"?>
<!-- Uploaded to: SVG Repo, www.svgrepo.com, Generator: SVG Repo Mixer Tools -->
<svg fill="#000000" height="800px" width="800px" version="1.1" id="Layer_1" xmlns="http://www.w3.org/2000/svg" xmlns:xlink="http://www.w3.org/1999/xlink" 
	 viewBox="0 0 512 512" xml:space="preserve">
<g>
	<g>
		<path d="M256,0C114.842,0,0,114.842,0,256s114.842,256,256,256s256-114.842,256-256S397.158,0,256,0z M231.226,460.96
			C137.152,449.658,62.342,374.848,51.04,280.774h143.717c6.704,16.554,19.915,29.767,36.469,36.469V460.96z M194.757,231.226H51.04
			C63.318,129.027,150.546,49.548,256,49.548s192.682,79.479,204.96,181.677H317.243c-9.802-24.208-33.521-41.29-61.243-41.29
			C228.278,189.935,204.559,207.018,194.757,231.226z M280.774,460.96V317.243c16.554-6.704,29.767-19.915,36.469-36.469H460.96
			C449.658,374.848,374.848,449.658,280.774,460.96z"/>
	</g>
</g>
</svg>